<mxfile host="app.diagrams.net" agent="Mozilla/5.0 (Windows NT 10.0; Win64; x64) AppleWebKit/537.36 (KHTML, like Gecko) Chrome/138.0.0.0 Safari/537.36" version="28.0.1">
  <diagram name="Page-1" id="x7aE3kxItg45fve8d4ma">
    <mxGraphModel dx="2505" dy="1072" grid="1" gridSize="10" guides="1" tooltips="1" connect="1" arrows="1" fold="1" page="1" pageScale="1" pageWidth="827" pageHeight="1169" math="0" shadow="0">
      <root>
        <mxCell id="0" />
        <mxCell id="1" parent="0" />
        <mxCell id="FYdLCkPqZ9HrTAAn0Wp5-1" value="ทบทวนสัญลักษณ์" style="swimlane;fontFamily=Sarabun;fontSource=https%3A%2F%2Ffonts.googleapis.com%2Fcss%3Ffamily%3DSarabun;" vertex="1" parent="1">
          <mxGeometry x="-720" y="20" width="650" height="290" as="geometry" />
        </mxCell>
        <mxCell id="FYdLCkPqZ9HrTAAn0Wp5-2" value="&lt;font data-font-src=&quot;https://fonts.googleapis.com/css?family=Sarabun&quot; face=&quot;Sarabun&quot;&gt;เริ่มต้น&lt;/font&gt;" style="ellipse;whiteSpace=wrap;html=1;" vertex="1" parent="FYdLCkPqZ9HrTAAn0Wp5-1">
          <mxGeometry x="20" y="40" width="130" height="30" as="geometry" />
        </mxCell>
        <mxCell id="FYdLCkPqZ9HrTAAn0Wp5-3" value="" style="endArrow=classic;html=1;rounded=0;" edge="1" parent="FYdLCkPqZ9HrTAAn0Wp5-1">
          <mxGeometry width="50" height="50" relative="1" as="geometry">
            <mxPoint x="84.5" y="70" as="sourcePoint" />
            <mxPoint x="84.5" y="120" as="targetPoint" />
          </mxGeometry>
        </mxCell>
        <mxCell id="FYdLCkPqZ9HrTAAn0Wp5-4" value="&lt;font face=&quot;Sarabun&quot;&gt;สิ้นสุด&lt;/font&gt;" style="ellipse;whiteSpace=wrap;html=1;" vertex="1" parent="FYdLCkPqZ9HrTAAn0Wp5-1">
          <mxGeometry x="150" y="90" width="130" height="30" as="geometry" />
        </mxCell>
        <mxCell id="FYdLCkPqZ9HrTAAn0Wp5-5" value="" style="endArrow=classic;html=1;rounded=0;" edge="1" parent="FYdLCkPqZ9HrTAAn0Wp5-1">
          <mxGeometry width="50" height="50" relative="1" as="geometry">
            <mxPoint x="214.5" y="40" as="sourcePoint" />
            <mxPoint x="214.5" y="90" as="targetPoint" />
          </mxGeometry>
        </mxCell>
        <mxCell id="FYdLCkPqZ9HrTAAn0Wp5-6" value="กระบวนการ" style="rounded=0;whiteSpace=wrap;html=1;fontFamily=Sarabun;fontSource=https%3A%2F%2Ffonts.googleapis.com%2Fcss%3Ffamily%3DSarabun;" vertex="1" parent="FYdLCkPqZ9HrTAAn0Wp5-1">
          <mxGeometry x="320" y="70" width="120" height="30" as="geometry" />
        </mxCell>
        <mxCell id="FYdLCkPqZ9HrTAAn0Wp5-7" value="" style="endArrow=classic;html=1;rounded=0;" edge="1" parent="FYdLCkPqZ9HrTAAn0Wp5-1">
          <mxGeometry width="50" height="50" relative="1" as="geometry">
            <mxPoint x="379" y="40" as="sourcePoint" />
            <mxPoint x="379.5" y="70" as="targetPoint" />
          </mxGeometry>
        </mxCell>
        <mxCell id="FYdLCkPqZ9HrTAAn0Wp5-8" value="" style="endArrow=classic;html=1;rounded=0;" edge="1" parent="FYdLCkPqZ9HrTAAn0Wp5-1">
          <mxGeometry width="50" height="50" relative="1" as="geometry">
            <mxPoint x="379.75" y="100" as="sourcePoint" />
            <mxPoint x="380.25" y="130" as="targetPoint" />
          </mxGeometry>
        </mxCell>
        <mxCell id="FYdLCkPqZ9HrTAAn0Wp5-9" value="ประโยคเงื่อนไข" style="rhombus;whiteSpace=wrap;html=1;fontFamily=Sarabun;fontSource=https%3A%2F%2Ffonts.googleapis.com%2Fcss%3Ffamily%3DSarabun;" vertex="1" parent="FYdLCkPqZ9HrTAAn0Wp5-1">
          <mxGeometry x="490" y="60" width="100" height="60" as="geometry" />
        </mxCell>
        <mxCell id="FYdLCkPqZ9HrTAAn0Wp5-10" value="" style="endArrow=classic;html=1;rounded=0;" edge="1" parent="FYdLCkPqZ9HrTAAn0Wp5-1">
          <mxGeometry width="50" height="50" relative="1" as="geometry">
            <mxPoint x="539.71" y="30" as="sourcePoint" />
            <mxPoint x="540.21" y="60" as="targetPoint" />
          </mxGeometry>
        </mxCell>
        <mxCell id="FYdLCkPqZ9HrTAAn0Wp5-11" value="" style="endArrow=classic;html=1;rounded=0;" edge="1" parent="FYdLCkPqZ9HrTAAn0Wp5-1">
          <mxGeometry width="50" height="50" relative="1" as="geometry">
            <mxPoint x="539.71" y="120" as="sourcePoint" />
            <mxPoint x="540" y="175" as="targetPoint" />
          </mxGeometry>
        </mxCell>
        <mxCell id="FYdLCkPqZ9HrTAAn0Wp5-12" value="จริง" style="edgeLabel;html=1;align=center;verticalAlign=middle;resizable=0;points=[];fontFamily=Sarabun;fontSource=https%3A%2F%2Ffonts.googleapis.com%2Fcss%3Ffamily%3DSarabun;" vertex="1" connectable="0" parent="FYdLCkPqZ9HrTAAn0Wp5-11">
          <mxGeometry x="-0.4142" y="-1" relative="1" as="geometry">
            <mxPoint as="offset" />
          </mxGeometry>
        </mxCell>
        <mxCell id="FYdLCkPqZ9HrTAAn0Wp5-13" value="" style="endArrow=classic;html=1;rounded=0;exitX=1;exitY=0.5;exitDx=0;exitDy=0;" edge="1" parent="FYdLCkPqZ9HrTAAn0Wp5-1" source="FYdLCkPqZ9HrTAAn0Wp5-9">
          <mxGeometry width="50" height="50" relative="1" as="geometry">
            <mxPoint x="620" y="95" as="sourcePoint" />
            <mxPoint x="610" y="175" as="targetPoint" />
            <Array as="points">
              <mxPoint x="610" y="90" />
            </Array>
          </mxGeometry>
        </mxCell>
        <mxCell id="FYdLCkPqZ9HrTAAn0Wp5-14" value="&lt;font data-font-src=&quot;https://fonts.googleapis.com/css?family=Sarabun&quot; face=&quot;Sarabun&quot;&gt;เท็จ&lt;/font&gt;" style="edgeLabel;html=1;align=center;verticalAlign=middle;resizable=0;points=[];" vertex="1" connectable="0" parent="FYdLCkPqZ9HrTAAn0Wp5-13">
          <mxGeometry x="-0.0019" y="-2" relative="1" as="geometry">
            <mxPoint as="offset" />
          </mxGeometry>
        </mxCell>
        <mxCell id="FYdLCkPqZ9HrTAAn0Wp5-15" value="&lt;font data-font-src=&quot;https://fonts.googleapis.com/css?family=Sarabun&quot; face=&quot;Sarabun&quot;&gt;ฟังก์ชัน/โมดูล&lt;/font&gt;" style="shape=process;whiteSpace=wrap;html=1;backgroundOutline=1;" vertex="1" parent="FYdLCkPqZ9HrTAAn0Wp5-1">
          <mxGeometry x="25" y="180" width="120" height="30" as="geometry" />
        </mxCell>
        <mxCell id="FYdLCkPqZ9HrTAAn0Wp5-16" value="" style="endArrow=classic;html=1;rounded=0;" edge="1" parent="FYdLCkPqZ9HrTAAn0Wp5-1">
          <mxGeometry width="50" height="50" relative="1" as="geometry">
            <mxPoint x="84.70999999999998" y="150" as="sourcePoint" />
            <mxPoint x="85.20999999999998" y="180" as="targetPoint" />
          </mxGeometry>
        </mxCell>
        <mxCell id="FYdLCkPqZ9HrTAAn0Wp5-17" value="" style="endArrow=classic;html=1;rounded=0;" edge="1" parent="FYdLCkPqZ9HrTAAn0Wp5-1">
          <mxGeometry width="50" height="50" relative="1" as="geometry">
            <mxPoint x="84.70999999999998" y="210" as="sourcePoint" />
            <mxPoint x="85.20999999999998" y="240" as="targetPoint" />
          </mxGeometry>
        </mxCell>
        <mxCell id="FYdLCkPqZ9HrTAAn0Wp5-18" value="" style="strokeWidth=2;html=1;shape=mxgraph.flowchart.start_2;whiteSpace=wrap;" vertex="1" parent="FYdLCkPqZ9HrTAAn0Wp5-1">
          <mxGeometry x="205" y="185" width="20" height="20" as="geometry" />
        </mxCell>
        <mxCell id="FYdLCkPqZ9HrTAAn0Wp5-19" value="" style="endArrow=classic;html=1;rounded=0;" edge="1" parent="FYdLCkPqZ9HrTAAn0Wp5-1">
          <mxGeometry width="50" height="50" relative="1" as="geometry">
            <mxPoint x="214.70999999999998" y="155" as="sourcePoint" />
            <mxPoint x="215.20999999999998" y="185" as="targetPoint" />
          </mxGeometry>
        </mxCell>
        <mxCell id="FYdLCkPqZ9HrTAAn0Wp5-20" value="" style="endArrow=classic;html=1;rounded=0;entryX=0;entryY=0.5;entryDx=0;entryDy=0;entryPerimeter=0;" edge="1" parent="FYdLCkPqZ9HrTAAn0Wp5-1" target="FYdLCkPqZ9HrTAAn0Wp5-18">
          <mxGeometry width="50" height="50" relative="1" as="geometry">
            <mxPoint x="189.99999999999997" y="155" as="sourcePoint" />
            <mxPoint x="190.49999999999997" y="185" as="targetPoint" />
            <Array as="points">
              <mxPoint x="190" y="180" />
            </Array>
          </mxGeometry>
        </mxCell>
        <mxCell id="FYdLCkPqZ9HrTAAn0Wp5-21" value="" style="endArrow=classic;html=1;rounded=0;entryX=1;entryY=0.5;entryDx=0;entryDy=0;entryPerimeter=0;" edge="1" parent="FYdLCkPqZ9HrTAAn0Wp5-1" target="FYdLCkPqZ9HrTAAn0Wp5-18">
          <mxGeometry width="50" height="50" relative="1" as="geometry">
            <mxPoint x="239.99999999999997" y="155" as="sourcePoint" />
            <mxPoint x="240.49999999999997" y="185" as="targetPoint" />
            <Array as="points">
              <mxPoint x="240" y="180" />
            </Array>
          </mxGeometry>
        </mxCell>
        <mxCell id="FYdLCkPqZ9HrTAAn0Wp5-22" value="" style="endArrow=classic;html=1;rounded=0;" edge="1" parent="FYdLCkPqZ9HrTAAn0Wp5-1">
          <mxGeometry width="50" height="50" relative="1" as="geometry">
            <mxPoint x="214.70999999999998" y="205" as="sourcePoint" />
            <mxPoint x="215.20999999999998" y="235" as="targetPoint" />
          </mxGeometry>
        </mxCell>
        <mxCell id="FYdLCkPqZ9HrTAAn0Wp5-23" value="&lt;font data-font-src=&quot;https://fonts.googleapis.com/css?family=Sarabun&quot; face=&quot;Sarabun&quot;&gt;ตัวเชื่อม&lt;/font&gt;" style="text;html=1;align=center;verticalAlign=middle;resizable=0;points=[];autosize=1;strokeColor=none;fillColor=none;" vertex="1" parent="FYdLCkPqZ9HrTAAn0Wp5-1">
          <mxGeometry x="220" y="190" width="60" height="30" as="geometry" />
        </mxCell>
        <mxCell id="FYdLCkPqZ9HrTAAn0Wp5-24" value="" style="endArrow=classic;html=1;rounded=0;" edge="1" parent="FYdLCkPqZ9HrTAAn0Wp5-1">
          <mxGeometry width="50" height="50" relative="1" as="geometry">
            <mxPoint x="353.71" y="165" as="sourcePoint" />
            <mxPoint x="354.21" y="195" as="targetPoint" />
          </mxGeometry>
        </mxCell>
        <mxCell id="FYdLCkPqZ9HrTAAn0Wp5-25" value="" style="verticalLabelPosition=bottom;verticalAlign=top;html=1;shape=offPageConnector;rounded=0;size=0.5;" vertex="1" parent="FYdLCkPqZ9HrTAAn0Wp5-1">
          <mxGeometry x="339" y="195" width="30" height="30" as="geometry" />
        </mxCell>
        <mxCell id="FYdLCkPqZ9HrTAAn0Wp5-26" value="" style="endArrow=classic;html=1;rounded=0;" edge="1" parent="FYdLCkPqZ9HrTAAn0Wp5-1">
          <mxGeometry width="50" height="50" relative="1" as="geometry">
            <mxPoint x="405.71" y="195" as="sourcePoint" />
            <mxPoint x="406.21" y="225" as="targetPoint" />
          </mxGeometry>
        </mxCell>
        <mxCell id="FYdLCkPqZ9HrTAAn0Wp5-27" value="" style="verticalLabelPosition=bottom;verticalAlign=top;html=1;shape=offPageConnector;rounded=0;size=0.5;" vertex="1" parent="FYdLCkPqZ9HrTAAn0Wp5-1">
          <mxGeometry x="391" y="165" width="30" height="30" as="geometry" />
        </mxCell>
        <mxCell id="FYdLCkPqZ9HrTAAn0Wp5-28" value="หน้าต่อไป" style="text;html=1;align=center;verticalAlign=middle;resizable=0;points=[];autosize=1;strokeColor=none;fillColor=none;fontFamily=Sarabun;fontSource=https%3A%2F%2Ffonts.googleapis.com%2Fcss%3Ffamily%3DSarabun;" vertex="1" parent="FYdLCkPqZ9HrTAAn0Wp5-1">
          <mxGeometry x="345" y="220" width="70" height="30" as="geometry" />
        </mxCell>
        <mxCell id="FYdLCkPqZ9HrTAAn0Wp5-29" value="ก" style="text;html=1;align=center;verticalAlign=middle;resizable=0;points=[];autosize=1;strokeColor=none;fillColor=none;fontFamily=Sarabun;fontSource=https%3A%2F%2Ffonts.googleapis.com%2Fcss%3Ffamily%3DSarabun;" vertex="1" parent="FYdLCkPqZ9HrTAAn0Wp5-1">
          <mxGeometry x="339" y="190" width="30" height="30" as="geometry" />
        </mxCell>
        <mxCell id="FYdLCkPqZ9HrTAAn0Wp5-30" value="ก" style="text;html=1;align=center;verticalAlign=middle;resizable=0;points=[];autosize=1;strokeColor=none;fillColor=none;fontFamily=Sarabun;fontSource=https%3A%2F%2Ffonts.googleapis.com%2Fcss%3Ffamily%3DSarabun;" vertex="1" parent="FYdLCkPqZ9HrTAAn0Wp5-1">
          <mxGeometry x="391" y="160" width="30" height="30" as="geometry" />
        </mxCell>
        <mxCell id="FYdLCkPqZ9HrTAAn0Wp5-31" value="แสดงผล/รับค่า" style="shape=parallelogram;perimeter=parallelogramPerimeter;whiteSpace=wrap;html=1;fixedSize=1;fontFamily=Sarabun;fontSource=https%3A%2F%2Ffonts.googleapis.com%2Fcss%3Ffamily%3DSarabun;" vertex="1" parent="FYdLCkPqZ9HrTAAn0Wp5-1">
          <mxGeometry x="450" y="210" width="120" height="30" as="geometry" />
        </mxCell>
        <mxCell id="FYdLCkPqZ9HrTAAn0Wp5-32" value="" style="endArrow=classic;html=1;rounded=0;" edge="1" parent="FYdLCkPqZ9HrTAAn0Wp5-1">
          <mxGeometry width="50" height="50" relative="1" as="geometry">
            <mxPoint x="509.71" y="180" as="sourcePoint" />
            <mxPoint x="510.21" y="210" as="targetPoint" />
          </mxGeometry>
        </mxCell>
        <mxCell id="FYdLCkPqZ9HrTAAn0Wp5-33" value="" style="endArrow=classic;html=1;rounded=0;" edge="1" parent="FYdLCkPqZ9HrTAAn0Wp5-1">
          <mxGeometry width="50" height="50" relative="1" as="geometry">
            <mxPoint x="509.71" y="240" as="sourcePoint" />
            <mxPoint x="510.21" y="270" as="targetPoint" />
          </mxGeometry>
        </mxCell>
        <mxCell id="FYdLCkPqZ9HrTAAn0Wp5-34" value="r" style="swimlane;fontFamily=Sarabun;fontSource=https%3A%2F%2Ffonts.googleapis.com%2Fcss%3Ffamily%3DSarabun;" vertex="1" parent="1">
          <mxGeometry x="-750" y="620" width="830" height="1670" as="geometry" />
        </mxCell>
        <mxCell id="FYdLCkPqZ9HrTAAn0Wp5-51" style="edgeStyle=orthogonalEdgeStyle;rounded=0;orthogonalLoop=1;jettySize=auto;html=1;" edge="1" parent="FYdLCkPqZ9HrTAAn0Wp5-34" source="FYdLCkPqZ9HrTAAn0Wp5-35" target="FYdLCkPqZ9HrTAAn0Wp5-46">
          <mxGeometry relative="1" as="geometry" />
        </mxCell>
        <mxCell id="FYdLCkPqZ9HrTAAn0Wp5-35" value="&lt;font data-font-src=&quot;https://fonts.googleapis.com/css?family=Sarabun&quot; face=&quot;Sarabun&quot;&gt;เริ่มต้น&lt;/font&gt;" style="ellipse;whiteSpace=wrap;html=1;" vertex="1" parent="FYdLCkPqZ9HrTAAn0Wp5-34">
          <mxGeometry x="355" y="40" width="130" height="30" as="geometry" />
        </mxCell>
        <mxCell id="FYdLCkPqZ9HrTAAn0Wp5-48" style="edgeStyle=orthogonalEdgeStyle;rounded=0;orthogonalLoop=1;jettySize=auto;html=1;" edge="1" parent="FYdLCkPqZ9HrTAAn0Wp5-34" source="FYdLCkPqZ9HrTAAn0Wp5-40" target="FYdLCkPqZ9HrTAAn0Wp5-45">
          <mxGeometry relative="1" as="geometry" />
        </mxCell>
        <mxCell id="FYdLCkPqZ9HrTAAn0Wp5-40" value="หาผลงาน portforilo&lt;div&gt;ของตัวเอง&lt;/div&gt;" style="rounded=0;whiteSpace=wrap;html=1;" vertex="1" parent="FYdLCkPqZ9HrTAAn0Wp5-34">
          <mxGeometry x="340" y="150" width="160" height="40" as="geometry" />
        </mxCell>
        <mxCell id="FYdLCkPqZ9HrTAAn0Wp5-53" style="edgeStyle=orthogonalEdgeStyle;rounded=0;orthogonalLoop=1;jettySize=auto;html=1;entryX=1;entryY=0.5;entryDx=0;entryDy=0;" edge="1" parent="FYdLCkPqZ9HrTAAn0Wp5-34" source="FYdLCkPqZ9HrTAAn0Wp5-45" target="FYdLCkPqZ9HrTAAn0Wp5-46">
          <mxGeometry relative="1" as="geometry">
            <Array as="points">
              <mxPoint x="540" y="270" />
              <mxPoint x="540" y="105" />
            </Array>
          </mxGeometry>
        </mxCell>
        <mxCell id="FYdLCkPqZ9HrTAAn0Wp5-59" style="edgeStyle=orthogonalEdgeStyle;rounded=0;orthogonalLoop=1;jettySize=auto;html=1;entryX=0.5;entryY=0;entryDx=0;entryDy=0;" edge="1" parent="FYdLCkPqZ9HrTAAn0Wp5-34" source="FYdLCkPqZ9HrTAAn0Wp5-45" target="FYdLCkPqZ9HrTAAn0Wp5-57">
          <mxGeometry relative="1" as="geometry" />
        </mxCell>
        <mxCell id="FYdLCkPqZ9HrTAAn0Wp5-45" value="&lt;font style=&quot;font-size: 10px;&quot;&gt;พอใจกับผลงานที่จะดึงดูดความสนใจของลูกค้ารึยัง&lt;/font&gt;" style="rhombus;whiteSpace=wrap;html=1;" vertex="1" parent="FYdLCkPqZ9HrTAAn0Wp5-34">
          <mxGeometry x="360" y="210" width="120" height="120" as="geometry" />
        </mxCell>
        <mxCell id="FYdLCkPqZ9HrTAAn0Wp5-49" style="edgeStyle=orthogonalEdgeStyle;rounded=0;orthogonalLoop=1;jettySize=auto;html=1;entryX=0.5;entryY=0;entryDx=0;entryDy=0;" edge="1" parent="FYdLCkPqZ9HrTAAn0Wp5-34" source="FYdLCkPqZ9HrTAAn0Wp5-46" target="FYdLCkPqZ9HrTAAn0Wp5-40">
          <mxGeometry relative="1" as="geometry" />
        </mxCell>
        <mxCell id="FYdLCkPqZ9HrTAAn0Wp5-46" value="" style="ellipse;whiteSpace=wrap;html=1;aspect=fixed;" vertex="1" parent="FYdLCkPqZ9HrTAAn0Wp5-34">
          <mxGeometry x="405" y="90" width="30" height="30" as="geometry" />
        </mxCell>
        <mxCell id="FYdLCkPqZ9HrTAAn0Wp5-47" value="" style="edgeStyle=orthogonalEdgeStyle;rounded=0;orthogonalLoop=1;jettySize=auto;html=1;" edge="1" parent="FYdLCkPqZ9HrTAAn0Wp5-34">
          <mxGeometry relative="1" as="geometry">
            <mxPoint x="419.58" y="80" as="targetPoint" />
            <mxPoint x="419.58" y="80" as="sourcePoint" />
          </mxGeometry>
        </mxCell>
        <mxCell id="FYdLCkPqZ9HrTAAn0Wp5-54" value="&lt;font style=&quot;font-size: 10px;&quot;&gt;N(ยังไม่พอใจ)&lt;/font&gt;" style="text;strokeColor=none;fillColor=none;html=1;fontSize=24;fontStyle=1;verticalAlign=middle;align=center;" vertex="1" parent="FYdLCkPqZ9HrTAAn0Wp5-34">
          <mxGeometry x="530" y="170" width="100" height="40" as="geometry" />
        </mxCell>
        <mxCell id="FYdLCkPqZ9HrTAAn0Wp5-56" value="&lt;span style=&quot;font-size: 10px;&quot;&gt;Y(พอใจ)&lt;/span&gt;" style="text;strokeColor=none;fillColor=none;html=1;fontSize=24;fontStyle=1;verticalAlign=middle;align=center;" vertex="1" parent="FYdLCkPqZ9HrTAAn0Wp5-34">
          <mxGeometry x="407.5" y="330" width="100" height="40" as="geometry" />
        </mxCell>
        <mxCell id="FYdLCkPqZ9HrTAAn0Wp5-62" style="edgeStyle=orthogonalEdgeStyle;rounded=0;orthogonalLoop=1;jettySize=auto;html=1;entryX=0.5;entryY=0;entryDx=0;entryDy=0;" edge="1" parent="FYdLCkPqZ9HrTAAn0Wp5-34" source="FYdLCkPqZ9HrTAAn0Wp5-57" target="FYdLCkPqZ9HrTAAn0Wp5-61">
          <mxGeometry relative="1" as="geometry" />
        </mxCell>
        <mxCell id="FYdLCkPqZ9HrTAAn0Wp5-57" value="ให้เริ่มโพส profile ของตัวเอง เพื่อหาลูกค้าใน app platfrom ต่างๆ" style="rounded=0;whiteSpace=wrap;html=1;" vertex="1" parent="FYdLCkPqZ9HrTAAn0Wp5-34">
          <mxGeometry x="332.5" y="380" width="175" height="40" as="geometry" />
        </mxCell>
        <mxCell id="FYdLCkPqZ9HrTAAn0Wp5-64" style="edgeStyle=orthogonalEdgeStyle;rounded=0;orthogonalLoop=1;jettySize=auto;html=1;entryX=0.5;entryY=0;entryDx=0;entryDy=0;" edge="1" parent="FYdLCkPqZ9HrTAAn0Wp5-34" source="FYdLCkPqZ9HrTAAn0Wp5-61" target="FYdLCkPqZ9HrTAAn0Wp5-63">
          <mxGeometry relative="1" as="geometry" />
        </mxCell>
        <mxCell id="FYdLCkPqZ9HrTAAn0Wp5-61" value="" style="ellipse;whiteSpace=wrap;html=1;aspect=fixed;" vertex="1" parent="FYdLCkPqZ9HrTAAn0Wp5-34">
          <mxGeometry x="405" y="450" width="30" height="30" as="geometry" />
        </mxCell>
        <mxCell id="FYdLCkPqZ9HrTAAn0Wp5-65" style="edgeStyle=orthogonalEdgeStyle;rounded=0;orthogonalLoop=1;jettySize=auto;html=1;entryX=1;entryY=0.5;entryDx=0;entryDy=0;" edge="1" parent="FYdLCkPqZ9HrTAAn0Wp5-34" source="FYdLCkPqZ9HrTAAn0Wp5-63" target="FYdLCkPqZ9HrTAAn0Wp5-61">
          <mxGeometry relative="1" as="geometry">
            <Array as="points">
              <mxPoint x="510" y="550" />
              <mxPoint x="510" y="465" />
            </Array>
          </mxGeometry>
        </mxCell>
        <mxCell id="FYdLCkPqZ9HrTAAn0Wp5-88" style="edgeStyle=orthogonalEdgeStyle;rounded=0;orthogonalLoop=1;jettySize=auto;html=1;" edge="1" parent="FYdLCkPqZ9HrTAAn0Wp5-34" source="FYdLCkPqZ9HrTAAn0Wp5-63">
          <mxGeometry relative="1" as="geometry">
            <mxPoint x="420" y="640" as="targetPoint" />
          </mxGeometry>
        </mxCell>
        <mxCell id="FYdLCkPqZ9HrTAAn0Wp5-63" value="มีลูกค้าติดต่อเข้ามา" style="rhombus;whiteSpace=wrap;html=1;" vertex="1" parent="FYdLCkPqZ9HrTAAn0Wp5-34">
          <mxGeometry x="380" y="510" width="80" height="80" as="geometry" />
        </mxCell>
        <mxCell id="FYdLCkPqZ9HrTAAn0Wp5-66" value="&lt;span style=&quot;font-size: 10px;&quot;&gt;N(เท็จ)&lt;/span&gt;" style="text;strokeColor=none;fillColor=none;html=1;fontSize=24;fontStyle=1;verticalAlign=middle;align=center;" vertex="1" parent="FYdLCkPqZ9HrTAAn0Wp5-34">
          <mxGeometry x="485" y="480" width="100" height="40" as="geometry" />
        </mxCell>
        <mxCell id="FYdLCkPqZ9HrTAAn0Wp5-89" value="&lt;span style=&quot;font-size: 10px;&quot;&gt;Y(จริง)&lt;/span&gt;" style="text;strokeColor=none;fillColor=none;html=1;fontSize=24;fontStyle=1;verticalAlign=middle;align=center;" vertex="1" parent="FYdLCkPqZ9HrTAAn0Wp5-34">
          <mxGeometry x="340" y="580" width="100" height="40" as="geometry" />
        </mxCell>
        <mxCell id="FYdLCkPqZ9HrTAAn0Wp5-93" style="edgeStyle=orthogonalEdgeStyle;rounded=0;orthogonalLoop=1;jettySize=auto;html=1;entryX=0.5;entryY=0;entryDx=0;entryDy=0;" edge="1" parent="FYdLCkPqZ9HrTAAn0Wp5-34" source="FYdLCkPqZ9HrTAAn0Wp5-90">
          <mxGeometry relative="1" as="geometry">
            <mxPoint x="420" y="710" as="targetPoint" />
          </mxGeometry>
        </mxCell>
        <mxCell id="FYdLCkPqZ9HrTAAn0Wp5-90" value="ติดต่อสนทนากับลูกค้า" style="rounded=0;whiteSpace=wrap;html=1;" vertex="1" parent="FYdLCkPqZ9HrTAAn0Wp5-34">
          <mxGeometry x="340" y="640" width="160" height="40" as="geometry" />
        </mxCell>
        <mxCell id="FYdLCkPqZ9HrTAAn0Wp5-99" style="edgeStyle=orthogonalEdgeStyle;rounded=0;orthogonalLoop=1;jettySize=auto;html=1;exitX=0.973;exitY=0.507;exitDx=0;exitDy=0;exitPerimeter=0;" edge="1" parent="FYdLCkPqZ9HrTAAn0Wp5-34" source="FYdLCkPqZ9HrTAAn0Wp5-97">
          <mxGeometry relative="1" as="geometry">
            <mxPoint x="470" y="760" as="sourcePoint" />
            <mxPoint x="435" y="455" as="targetPoint" />
            <Array as="points">
              <mxPoint x="625" y="746" />
              <mxPoint x="625" y="455" />
            </Array>
          </mxGeometry>
        </mxCell>
        <mxCell id="FYdLCkPqZ9HrTAAn0Wp5-107" value="" style="edgeStyle=orthogonalEdgeStyle;rounded=0;orthogonalLoop=1;jettySize=auto;html=1;" edge="1" parent="FYdLCkPqZ9HrTAAn0Wp5-34" source="FYdLCkPqZ9HrTAAn0Wp5-97" target="FYdLCkPqZ9HrTAAn0Wp5-106">
          <mxGeometry relative="1" as="geometry" />
        </mxCell>
        <mxCell id="FYdLCkPqZ9HrTAAn0Wp5-97" value="ตกลงที่จะรับงานของลูกค้าไหม" style="rhombus;whiteSpace=wrap;html=1;rounded=0;" vertex="1" parent="FYdLCkPqZ9HrTAAn0Wp5-34">
          <mxGeometry x="375" y="700" width="90" height="90" as="geometry" />
        </mxCell>
        <mxCell id="FYdLCkPqZ9HrTAAn0Wp5-103" value="&lt;span style=&quot;font-size: 10px;&quot;&gt;N(ไม่ตกลง)&lt;/span&gt;" style="text;strokeColor=none;fillColor=none;html=1;fontSize=24;fontStyle=1;verticalAlign=middle;align=center;" vertex="1" parent="FYdLCkPqZ9HrTAAn0Wp5-34">
          <mxGeometry x="485" y="710" width="100" height="40" as="geometry" />
        </mxCell>
        <mxCell id="FYdLCkPqZ9HrTAAn0Wp5-104" value="&lt;span style=&quot;font-size: 10px;&quot;&gt;Y(ตกลง)&lt;/span&gt;" style="text;strokeColor=none;fillColor=none;html=1;fontSize=24;fontStyle=1;verticalAlign=middle;align=center;" vertex="1" parent="FYdLCkPqZ9HrTAAn0Wp5-34">
          <mxGeometry x="330" y="790" width="100" height="40" as="geometry" />
        </mxCell>
        <mxCell id="FYdLCkPqZ9HrTAAn0Wp5-111" value="" style="edgeStyle=orthogonalEdgeStyle;rounded=0;orthogonalLoop=1;jettySize=auto;html=1;" edge="1" parent="FYdLCkPqZ9HrTAAn0Wp5-34" source="FYdLCkPqZ9HrTAAn0Wp5-106" target="FYdLCkPqZ9HrTAAn0Wp5-110">
          <mxGeometry relative="1" as="geometry" />
        </mxCell>
        <mxCell id="FYdLCkPqZ9HrTAAn0Wp5-106" value="นัดหมายกับลูกค้า เพื่อตกลงเรื่องงานที่ต้องทำ" style="whiteSpace=wrap;html=1;rounded=0;" vertex="1" parent="FYdLCkPqZ9HrTAAn0Wp5-34">
          <mxGeometry x="355" y="850" width="130" height="40" as="geometry" />
        </mxCell>
        <mxCell id="FYdLCkPqZ9HrTAAn0Wp5-114" value="" style="edgeStyle=orthogonalEdgeStyle;rounded=0;orthogonalLoop=1;jettySize=auto;html=1;" edge="1" parent="FYdLCkPqZ9HrTAAn0Wp5-34" source="FYdLCkPqZ9HrTAAn0Wp5-110" target="FYdLCkPqZ9HrTAAn0Wp5-113">
          <mxGeometry relative="1" as="geometry" />
        </mxCell>
        <mxCell id="FYdLCkPqZ9HrTAAn0Wp5-110" value="ทำblefงานเพื่อเสนอลูกค้า" style="whiteSpace=wrap;html=1;rounded=0;" vertex="1" parent="FYdLCkPqZ9HrTAAn0Wp5-34">
          <mxGeometry x="350" y="930" width="140" height="30" as="geometry" />
        </mxCell>
        <mxCell id="FYdLCkPqZ9HrTAAn0Wp5-113" value="เสนอลูกค้าว่าตงลงตามนี้ไหม" style="whiteSpace=wrap;html=1;rounded=0;" vertex="1" parent="FYdLCkPqZ9HrTAAn0Wp5-34">
          <mxGeometry x="355" y="1000" width="130" height="35" as="geometry" />
        </mxCell>
        <mxCell id="FYdLCkPqZ9HrTAAn0Wp5-132" value="" style="edgeStyle=orthogonalEdgeStyle;rounded=0;orthogonalLoop=1;jettySize=auto;html=1;" edge="1" parent="FYdLCkPqZ9HrTAAn0Wp5-34" source="FYdLCkPqZ9HrTAAn0Wp5-136" target="FYdLCkPqZ9HrTAAn0Wp5-131">
          <mxGeometry relative="1" as="geometry" />
        </mxCell>
        <mxCell id="FYdLCkPqZ9HrTAAn0Wp5-115" value="ลูกค้าตกลงที่จะ&lt;div&gt;ดิลงานไหม&lt;/div&gt;" style="rhombus;whiteSpace=wrap;html=1;rounded=0;" vertex="1" parent="FYdLCkPqZ9HrTAAn0Wp5-34">
          <mxGeometry x="365" y="1150" width="100" height="100" as="geometry" />
        </mxCell>
        <mxCell id="FYdLCkPqZ9HrTAAn0Wp5-125" style="edgeStyle=orthogonalEdgeStyle;rounded=0;orthogonalLoop=1;jettySize=auto;html=1;entryX=0.5;entryY=0;entryDx=0;entryDy=0;" edge="1" parent="FYdLCkPqZ9HrTAAn0Wp5-34" source="FYdLCkPqZ9HrTAAn0Wp5-118" target="FYdLCkPqZ9HrTAAn0Wp5-115">
          <mxGeometry relative="1" as="geometry" />
        </mxCell>
        <mxCell id="FYdLCkPqZ9HrTAAn0Wp5-118" value="คำนวณค่ามัดจำใช้จ่ายงานของลูกค้า" style="whiteSpace=wrap;html=1;rounded=0;" vertex="1" parent="FYdLCkPqZ9HrTAAn0Wp5-34">
          <mxGeometry x="355" y="1060" width="120" height="36" as="geometry" />
        </mxCell>
        <mxCell id="FYdLCkPqZ9HrTAAn0Wp5-123" style="edgeStyle=orthogonalEdgeStyle;rounded=0;orthogonalLoop=1;jettySize=auto;html=1;" edge="1" parent="FYdLCkPqZ9HrTAAn0Wp5-34">
          <mxGeometry relative="1" as="geometry">
            <mxPoint x="440" y="440" as="targetPoint" />
            <mxPoint x="470" y="1200" as="sourcePoint" />
            <Array as="points">
              <mxPoint x="670" y="1200" />
              <mxPoint x="670" y="440" />
            </Array>
          </mxGeometry>
        </mxCell>
        <mxCell id="FYdLCkPqZ9HrTAAn0Wp5-124" style="edgeStyle=orthogonalEdgeStyle;rounded=0;orthogonalLoop=1;jettySize=auto;html=1;entryX=0.538;entryY=0.029;entryDx=0;entryDy=0;entryPerimeter=0;" edge="1" parent="FYdLCkPqZ9HrTAAn0Wp5-34" source="FYdLCkPqZ9HrTAAn0Wp5-113" target="FYdLCkPqZ9HrTAAn0Wp5-118">
          <mxGeometry relative="1" as="geometry" />
        </mxCell>
        <mxCell id="FYdLCkPqZ9HrTAAn0Wp5-128" value="&lt;span style=&quot;font-size: 10px;&quot;&gt;N(ไม่ตกลง)&lt;/span&gt;" style="text;strokeColor=none;fillColor=none;html=1;fontSize=24;fontStyle=1;verticalAlign=middle;align=center;" vertex="1" parent="FYdLCkPqZ9HrTAAn0Wp5-34">
          <mxGeometry x="500" y="1170" width="100" height="40" as="geometry" />
        </mxCell>
        <mxCell id="FYdLCkPqZ9HrTAAn0Wp5-129" value="&lt;span style=&quot;font-size: 10px;&quot;&gt;Y(ตกลง)&lt;/span&gt;" style="text;strokeColor=none;fillColor=none;html=1;fontSize=24;fontStyle=1;verticalAlign=middle;align=center;" vertex="1" parent="FYdLCkPqZ9HrTAAn0Wp5-34">
          <mxGeometry x="335" y="1234" width="100" height="40" as="geometry" />
        </mxCell>
        <mxCell id="FYdLCkPqZ9HrTAAn0Wp5-131" value="พูดคุยทำข้อตกลงกับลูกค้าถึง กำหนดส่งงาน งานต้องไปในลักษณะไหน" style="whiteSpace=wrap;html=1;rounded=0;" vertex="1" parent="FYdLCkPqZ9HrTAAn0Wp5-34">
          <mxGeometry x="354" y="1340" width="120" height="60" as="geometry" />
        </mxCell>
        <mxCell id="FYdLCkPqZ9HrTAAn0Wp5-137" value="" style="edgeStyle=orthogonalEdgeStyle;rounded=0;orthogonalLoop=1;jettySize=auto;html=1;" edge="1" parent="FYdLCkPqZ9HrTAAn0Wp5-34" source="FYdLCkPqZ9HrTAAn0Wp5-115" target="FYdLCkPqZ9HrTAAn0Wp5-136">
          <mxGeometry relative="1" as="geometry">
            <mxPoint x="-295" y="1770" as="sourcePoint" />
            <mxPoint x="-295" y="1840" as="targetPoint" />
          </mxGeometry>
        </mxCell>
        <mxCell id="FYdLCkPqZ9HrTAAn0Wp5-136" value="" style="ellipse;whiteSpace=wrap;html=1;aspect=fixed;" vertex="1" parent="FYdLCkPqZ9HrTAAn0Wp5-34">
          <mxGeometry x="399" y="1280" width="30" height="30" as="geometry" />
        </mxCell>
        <mxCell id="FYdLCkPqZ9HrTAAn0Wp5-149" value="" style="endArrow=classic;html=1;rounded=0;" edge="1" parent="FYdLCkPqZ9HrTAAn0Wp5-34">
          <mxGeometry width="50" height="50" relative="1" as="geometry">
            <mxPoint x="411.71" y="1400" as="sourcePoint" />
            <mxPoint x="412.21" y="1430" as="targetPoint" />
          </mxGeometry>
        </mxCell>
        <mxCell id="FYdLCkPqZ9HrTAAn0Wp5-150" value="" style="verticalLabelPosition=bottom;verticalAlign=top;html=1;shape=offPageConnector;rounded=0;size=0.5;" vertex="1" parent="FYdLCkPqZ9HrTAAn0Wp5-34">
          <mxGeometry x="397" y="1430" width="30" height="30" as="geometry" />
        </mxCell>
        <mxCell id="FYdLCkPqZ9HrTAAn0Wp5-152" value="ก" style="text;html=1;align=center;verticalAlign=middle;resizable=0;points=[];autosize=1;strokeColor=none;fillColor=none;fontFamily=Sarabun;fontSource=https%3A%2F%2Ffonts.googleapis.com%2Fcss%3Ffamily%3DSarabun;" vertex="1" parent="FYdLCkPqZ9HrTAAn0Wp5-34">
          <mxGeometry x="397" y="1425" width="30" height="30" as="geometry" />
        </mxCell>
        <mxCell id="FYdLCkPqZ9HrTAAn0Wp5-153" value="&lt;span style=&quot;font-size: 10px;&quot;&gt;หน้าถัดไป&lt;/span&gt;" style="text;strokeColor=none;fillColor=none;html=1;fontSize=24;fontStyle=1;verticalAlign=middle;align=center;" vertex="1" parent="FYdLCkPqZ9HrTAAn0Wp5-34">
          <mxGeometry x="429" y="1445" width="53" height="10" as="geometry" />
        </mxCell>
        <mxCell id="FYdLCkPqZ9HrTAAn0Wp5-37" value="&lt;font data-font-src=&quot;https://fonts.googleapis.com/css?family=Sarabun&quot; face=&quot;Sarabun&quot;&gt;โจทย์ปัญหา&lt;/font&gt;" style="swimlane;whiteSpace=wrap;html=1;" vertex="1" parent="1">
          <mxGeometry x="-732.5" y="320" width="675" height="190" as="geometry" />
        </mxCell>
        <mxCell id="FYdLCkPqZ9HrTAAn0Wp5-38" value="&lt;p style=&quot;line-height: 120%;&quot;&gt;&lt;font data-font-src=&quot;https://fonts.googleapis.com/css?family=Sarabun&quot; face=&quot;Sarabun&quot; style=&quot;font-size: 14px;&quot;&gt;&lt;b&gt;&lt;u&gt;โจทย์&lt;/u&gt;&lt;/b&gt; จงเขียน Flowchart เพื่ออธิบายกระบวนการในการรับงานทำเว็บไซต์จากลูกค้า&lt;br&gt;&amp;nbsp; &amp;nbsp; &amp;nbsp; &amp;nbsp; &amp;nbsp; (ดูตัวอย่างได้จากเว็บไซท์ https://www.fastwork.com)&lt;br&gt;&lt;/font&gt;&lt;br&gt;&lt;/p&gt;&lt;p style=&quot;line-height: 120%;&quot;&gt;&lt;font face=&quot;Sarabun&quot;&gt;&lt;b&gt;&lt;u&gt;หมายเหตุ&lt;/u&gt;&lt;/b&gt;&amp;nbsp;ควรมีขั้นตอนครบถ้วน เปรียบเสมือนตัวคุณเอง ที่กำลังอยากเริ่มต้นรับงานทำเว็บไซต์จากลูกค้าของคุณเอง&lt;br&gt;&amp;nbsp; &amp;nbsp; &amp;nbsp; &amp;nbsp; คุณจะต้องคำนึงถึงขั้นตอนทุกอย่างให้รอบคอบตั้งแต่การโพสหางาน การพูดคุยเพื่อคัดกรองลูกค้า&lt;br&gt;&amp;nbsp; &amp;nbsp; &amp;nbsp; &amp;nbsp; การพูดคุยเรื่องความต้องการของลูกค้าเป็นข้อๆให้ชัดเจน การเซ็นต์สัญญารับงาน การรับเงินล่วงหน้าก่อน ฯลฯ&lt;/font&gt;&lt;/p&gt;&lt;p style=&quot;line-height: 120%;&quot;&gt;&lt;font face=&quot;Sarabun&quot;&gt;&lt;br&gt;&lt;/font&gt;&lt;/p&gt;" style="text;html=1;align=left;verticalAlign=top;resizable=0;points=[];autosize=1;strokeColor=none;fillColor=none;fontSize=14;" vertex="1" parent="FYdLCkPqZ9HrTAAn0Wp5-37">
          <mxGeometry x="15" y="20" width="660" height="200" as="geometry" />
        </mxCell>
        <mxCell id="FYdLCkPqZ9HrTAAn0Wp5-203" value="r" style="swimlane;fontFamily=Sarabun;fontSource=https%3A%2F%2Ffonts.googleapis.com%2Fcss%3Ffamily%3DSarabun;" vertex="1" parent="1">
          <mxGeometry x="150" y="630" width="830" height="1670" as="geometry" />
        </mxCell>
        <mxCell id="FYdLCkPqZ9HrTAAn0Wp5-252" value="" style="verticalLabelPosition=bottom;verticalAlign=top;html=1;shape=offPageConnector;rounded=0;size=0.5;" vertex="1" parent="FYdLCkPqZ9HrTAAn0Wp5-203">
          <mxGeometry x="400" y="65" width="30" height="30" as="geometry" />
        </mxCell>
        <mxCell id="FYdLCkPqZ9HrTAAn0Wp5-256" value="" style="edgeStyle=orthogonalEdgeStyle;rounded=0;orthogonalLoop=1;jettySize=auto;html=1;" edge="1" parent="FYdLCkPqZ9HrTAAn0Wp5-203" source="FYdLCkPqZ9HrTAAn0Wp5-253" target="FYdLCkPqZ9HrTAAn0Wp5-255">
          <mxGeometry relative="1" as="geometry" />
        </mxCell>
        <mxCell id="FYdLCkPqZ9HrTAAn0Wp5-253" value="ก" style="text;html=1;align=center;verticalAlign=middle;resizable=0;points=[];autosize=1;strokeColor=none;fillColor=none;fontFamily=Sarabun;fontSource=https%3A%2F%2Ffonts.googleapis.com%2Fcss%3Ffamily%3DSarabun;" vertex="1" parent="FYdLCkPqZ9HrTAAn0Wp5-203">
          <mxGeometry x="400" y="60" width="30" height="30" as="geometry" />
        </mxCell>
        <mxCell id="FYdLCkPqZ9HrTAAn0Wp5-259" value="" style="edgeStyle=orthogonalEdgeStyle;rounded=0;orthogonalLoop=1;jettySize=auto;html=1;" edge="1" parent="FYdLCkPqZ9HrTAAn0Wp5-203" source="FYdLCkPqZ9HrTAAn0Wp5-255" target="FYdLCkPqZ9HrTAAn0Wp5-258">
          <mxGeometry relative="1" as="geometry" />
        </mxCell>
        <mxCell id="FYdLCkPqZ9HrTAAn0Wp5-255" value="คิดเงินมัดจำลูกค้า&amp;nbsp;&lt;div&gt;30% - 50%&lt;/div&gt;" style="whiteSpace=wrap;html=1;" vertex="1" parent="FYdLCkPqZ9HrTAAn0Wp5-203">
          <mxGeometry x="347.5" y="130" width="135" height="35" as="geometry" />
        </mxCell>
        <mxCell id="FYdLCkPqZ9HrTAAn0Wp5-261" value="" style="edgeStyle=orthogonalEdgeStyle;rounded=0;orthogonalLoop=1;jettySize=auto;html=1;" edge="1" parent="FYdLCkPqZ9HrTAAn0Wp5-203" source="FYdLCkPqZ9HrTAAn0Wp5-258" target="FYdLCkPqZ9HrTAAn0Wp5-260">
          <mxGeometry relative="1" as="geometry" />
        </mxCell>
        <mxCell id="FYdLCkPqZ9HrTAAn0Wp5-258" value="รับเงินมัดจำจากลูกค้า" style="whiteSpace=wrap;html=1;" vertex="1" parent="FYdLCkPqZ9HrTAAn0Wp5-203">
          <mxGeometry x="347.5" y="200" width="135" height="35" as="geometry" />
        </mxCell>
        <mxCell id="FYdLCkPqZ9HrTAAn0Wp5-263" value="" style="edgeStyle=orthogonalEdgeStyle;rounded=0;orthogonalLoop=1;jettySize=auto;html=1;" edge="1" parent="FYdLCkPqZ9HrTAAn0Wp5-203" source="FYdLCkPqZ9HrTAAn0Wp5-264" target="FYdLCkPqZ9HrTAAn0Wp5-262">
          <mxGeometry relative="1" as="geometry" />
        </mxCell>
        <mxCell id="FYdLCkPqZ9HrTAAn0Wp5-260" value="เริ่มงานตามกำหนดระยะเวลาที่เจรจากับลูกค้า" style="whiteSpace=wrap;html=1;" vertex="1" parent="FYdLCkPqZ9HrTAAn0Wp5-203">
          <mxGeometry x="347.5" y="270" width="135" height="35" as="geometry" />
        </mxCell>
        <mxCell id="FYdLCkPqZ9HrTAAn0Wp5-268" value="" style="edgeStyle=orthogonalEdgeStyle;rounded=0;orthogonalLoop=1;jettySize=auto;html=1;" edge="1" parent="FYdLCkPqZ9HrTAAn0Wp5-203" source="FYdLCkPqZ9HrTAAn0Wp5-262" target="FYdLCkPqZ9HrTAAn0Wp5-267">
          <mxGeometry relative="1" as="geometry" />
        </mxCell>
        <mxCell id="FYdLCkPqZ9HrTAAn0Wp5-262" value="Check ดูข้อผิดผลาด และ แก้ไขงาน ว่า มันเหมือนกับ้อตกลงที่คุยกับลูกค้าหรือไม่" style="whiteSpace=wrap;html=1;" vertex="1" parent="FYdLCkPqZ9HrTAAn0Wp5-203">
          <mxGeometry x="328.75" y="390" width="172.5" height="90" as="geometry" />
        </mxCell>
        <mxCell id="FYdLCkPqZ9HrTAAn0Wp5-266" value="" style="edgeStyle=orthogonalEdgeStyle;rounded=0;orthogonalLoop=1;jettySize=auto;html=1;" edge="1" parent="FYdLCkPqZ9HrTAAn0Wp5-203" source="FYdLCkPqZ9HrTAAn0Wp5-264" target="FYdLCkPqZ9HrTAAn0Wp5-262">
          <mxGeometry relative="1" as="geometry" />
        </mxCell>
        <mxCell id="FYdLCkPqZ9HrTAAn0Wp5-264" value="" style="ellipse;whiteSpace=wrap;html=1;aspect=fixed;" vertex="1" parent="FYdLCkPqZ9HrTAAn0Wp5-203">
          <mxGeometry x="400" y="330" width="30" height="30" as="geometry" />
        </mxCell>
        <mxCell id="FYdLCkPqZ9HrTAAn0Wp5-265" value="" style="edgeStyle=orthogonalEdgeStyle;rounded=0;orthogonalLoop=1;jettySize=auto;html=1;" edge="1" parent="FYdLCkPqZ9HrTAAn0Wp5-203" source="FYdLCkPqZ9HrTAAn0Wp5-260" target="FYdLCkPqZ9HrTAAn0Wp5-264">
          <mxGeometry relative="1" as="geometry">
            <mxPoint x="565" y="935" as="sourcePoint" />
            <mxPoint x="565" y="970" as="targetPoint" />
          </mxGeometry>
        </mxCell>
        <mxCell id="FYdLCkPqZ9HrTAAn0Wp5-270" value="" style="edgeStyle=orthogonalEdgeStyle;rounded=0;orthogonalLoop=1;jettySize=auto;html=1;" edge="1" parent="FYdLCkPqZ9HrTAAn0Wp5-203" source="FYdLCkPqZ9HrTAAn0Wp5-267" target="FYdLCkPqZ9HrTAAn0Wp5-269">
          <mxGeometry relative="1" as="geometry" />
        </mxCell>
        <mxCell id="FYdLCkPqZ9HrTAAn0Wp5-267" value="นำไฟล์งานตัวอย่างที่ยังไม่เสร็จสมบูรณ์เสนอดูให้กับลูกค้า" style="whiteSpace=wrap;html=1;" vertex="1" parent="FYdLCkPqZ9HrTAAn0Wp5-203">
          <mxGeometry x="328.75" y="520" width="172.5" height="90" as="geometry" />
        </mxCell>
        <mxCell id="FYdLCkPqZ9HrTAAn0Wp5-271" style="edgeStyle=orthogonalEdgeStyle;rounded=0;orthogonalLoop=1;jettySize=auto;html=1;entryX=1;entryY=0.5;entryDx=0;entryDy=0;" edge="1" parent="FYdLCkPqZ9HrTAAn0Wp5-203" source="FYdLCkPqZ9HrTAAn0Wp5-269" target="FYdLCkPqZ9HrTAAn0Wp5-264">
          <mxGeometry relative="1" as="geometry">
            <Array as="points">
              <mxPoint x="560" y="708" />
              <mxPoint x="560" y="345" />
            </Array>
          </mxGeometry>
        </mxCell>
        <mxCell id="FYdLCkPqZ9HrTAAn0Wp5-273" style="edgeStyle=orthogonalEdgeStyle;rounded=0;orthogonalLoop=1;jettySize=auto;html=1;" edge="1" parent="FYdLCkPqZ9HrTAAn0Wp5-203" source="FYdLCkPqZ9HrTAAn0Wp5-269">
          <mxGeometry relative="1" as="geometry">
            <mxPoint x="415" y="810" as="targetPoint" />
          </mxGeometry>
        </mxCell>
        <mxCell id="FYdLCkPqZ9HrTAAn0Wp5-269" value="ลูกค้าพอใจไหม" style="rhombus;whiteSpace=wrap;html=1;" vertex="1" parent="FYdLCkPqZ9HrTAAn0Wp5-203">
          <mxGeometry x="367.5" y="660" width="95" height="95" as="geometry" />
        </mxCell>
        <mxCell id="FYdLCkPqZ9HrTAAn0Wp5-272" value="&lt;span&gt;N(ยังไม่ตรงวคามต้องการลูกค้า)&lt;/span&gt;" style="text;strokeColor=none;fillColor=none;html=1;fontSize=13;fontStyle=1;verticalAlign=middle;align=center;" vertex="1" parent="FYdLCkPqZ9HrTAAn0Wp5-203">
          <mxGeometry x="600" y="500" width="130" height="70" as="geometry" />
        </mxCell>
        <mxCell id="FYdLCkPqZ9HrTAAn0Wp5-274" value="&lt;span&gt;Y(ตรงตามความต้องการลูกค้า)&lt;/span&gt;" style="text;strokeColor=none;fillColor=none;html=1;fontSize=13;fontStyle=1;verticalAlign=middle;align=center;" vertex="1" parent="FYdLCkPqZ9HrTAAn0Wp5-203">
          <mxGeometry x="240" y="740" width="130" height="70" as="geometry" />
        </mxCell>
        <mxCell id="FYdLCkPqZ9HrTAAn0Wp5-277" value="" style="edgeStyle=orthogonalEdgeStyle;rounded=0;orthogonalLoop=1;jettySize=auto;html=1;" edge="1" parent="FYdLCkPqZ9HrTAAn0Wp5-203" source="FYdLCkPqZ9HrTAAn0Wp5-275" target="FYdLCkPqZ9HrTAAn0Wp5-276">
          <mxGeometry relative="1" as="geometry" />
        </mxCell>
        <mxCell id="FYdLCkPqZ9HrTAAn0Wp5-275" value="ส่งงานให้กับลูกค้า&amp;nbsp;" style="rounded=0;whiteSpace=wrap;html=1;" vertex="1" parent="FYdLCkPqZ9HrTAAn0Wp5-203">
          <mxGeometry x="325" y="810" width="180" height="50" as="geometry" />
        </mxCell>
        <mxCell id="FYdLCkPqZ9HrTAAn0Wp5-279" value="" style="edgeStyle=orthogonalEdgeStyle;rounded=0;orthogonalLoop=1;jettySize=auto;html=1;" edge="1" parent="FYdLCkPqZ9HrTAAn0Wp5-203" source="FYdLCkPqZ9HrTAAn0Wp5-276" target="FYdLCkPqZ9HrTAAn0Wp5-278">
          <mxGeometry relative="1" as="geometry" />
        </mxCell>
        <mxCell id="FYdLCkPqZ9HrTAAn0Wp5-276" value="รับเงินส่วนที่เหลือ" style="rounded=0;whiteSpace=wrap;html=1;" vertex="1" parent="FYdLCkPqZ9HrTAAn0Wp5-203">
          <mxGeometry x="325" y="910" width="180" height="50" as="geometry" />
        </mxCell>
        <mxCell id="FYdLCkPqZ9HrTAAn0Wp5-281" value="" style="edgeStyle=orthogonalEdgeStyle;rounded=0;orthogonalLoop=1;jettySize=auto;html=1;" edge="1" parent="FYdLCkPqZ9HrTAAn0Wp5-203" source="FYdLCkPqZ9HrTAAn0Wp5-278" target="FYdLCkPqZ9HrTAAn0Wp5-280">
          <mxGeometry relative="1" as="geometry" />
        </mxCell>
        <mxCell id="FYdLCkPqZ9HrTAAn0Wp5-278" value="ติดตามงานของตัวเองว่า มีจุดบกพร่องไหม" style="rounded=0;whiteSpace=wrap;html=1;" vertex="1" parent="FYdLCkPqZ9HrTAAn0Wp5-203">
          <mxGeometry x="325" y="1000" width="180" height="50" as="geometry" />
        </mxCell>
        <mxCell id="FYdLCkPqZ9HrTAAn0Wp5-285" value="" style="edgeStyle=orthogonalEdgeStyle;rounded=0;orthogonalLoop=1;jettySize=auto;html=1;" edge="1" parent="FYdLCkPqZ9HrTAAn0Wp5-203" source="FYdLCkPqZ9HrTAAn0Wp5-280" target="FYdLCkPqZ9HrTAAn0Wp5-284">
          <mxGeometry relative="1" as="geometry" />
        </mxCell>
        <mxCell id="FYdLCkPqZ9HrTAAn0Wp5-280" value="ขอข้อเสนอแนะจากลูกค้าเพื่อนำไปปรับใช้ และ พัฒนาตัวเอง" style="rounded=0;whiteSpace=wrap;html=1;" vertex="1" parent="FYdLCkPqZ9HrTAAn0Wp5-203">
          <mxGeometry x="325" y="1099" width="180" height="50" as="geometry" />
        </mxCell>
        <mxCell id="FYdLCkPqZ9HrTAAn0Wp5-284" value="&lt;font face=&quot;Sarabun&quot;&gt;สิ้นสุด&lt;/font&gt;" style="ellipse;whiteSpace=wrap;html=1;" vertex="1" parent="FYdLCkPqZ9HrTAAn0Wp5-203">
          <mxGeometry x="350" y="1180" width="130" height="30" as="geometry" />
        </mxCell>
      </root>
    </mxGraphModel>
  </diagram>
</mxfile>
